<?xml version="1.0" encoding="UTF-8" standalone="no"?>
<!-- Created with Inkscape (http://www.inkscape.org/) -->

<svg
   xmlns:dc="http://purl.org/dc/elements/1.1/"
   xmlns:cc="http://creativecommons.org/ns#"
   xmlns:rdf="http://www.w3.org/1999/02/22-rdf-syntax-ns#"
   xmlns:svg="http://www.w3.org/2000/svg"
   xmlns="http://www.w3.org/2000/svg"
   xmlns:sodipodi="http://sodipodi.sourceforge.net/DTD/sodipodi-0.dtd"
   xmlns:inkscape="http://www.inkscape.org/namespaces/inkscape"
   width="64"
   height="64"
   id="svg2"
   inkscape:label="Pozadí"
   version="1.1"
   inkscape:version="0.48.4 r9939"
   sodipodi:docname="Nový dokument 1">
  <defs
     id="defs3" />
  <sodipodi:namedview
     id="base"
     pagecolor="#ffffff"
     bordercolor="#666666"
     borderopacity="1.0"
     inkscape:pageopacity="0.0"
     inkscape:pageshadow="2"
     inkscape:zoom="11.2"
     inkscape:cx="25.535579"
     inkscape:cy="25.728626"
     inkscape:document-units="px"
     inkscape:current-layer="layer1-1"
     showgrid="false"
     inkscape:window-width="1855"
     inkscape:window-height="1056"
     inkscape:window-x="65"
     inkscape:window-y="24"
     inkscape:window-maximized="1" />
  <metadata
     id="metadata6">
    <rdf:RDF>
      <cc:Work
         rdf:about="">
        <dc:format>image/svg+xml</dc:format>
        <dc:type
           rdf:resource="http://purl.org/dc/dcmitype/StillImage" />
        <dc:title></dc:title>
      </cc:Work>
    </rdf:RDF>
  </metadata>
  <g
     inkscape:label="Vrstva 1"
     inkscape:groupmode="layer"
     id="layer1"
     transform="translate(0,-988.36218)">
    <g
       transform="matrix(0.25,0,0,0.25,0,789.27163)"
       id="layer1-1"
       inkscape:label="Vrstva 1">
      <text
         transform="translate(0,796.36218)"
         sodipodi:linespacing="125%"
         id="text2984"
         y="76.321236"
         x="49.848186"
         style="font-size:40px;font-style:normal;font-weight:normal;line-height:125%;letter-spacing:0px;word-spacing:0px;fill:#000000;fill-opacity:1;stroke:none;font-family:Sans"
         xml:space="preserve"><tspan
           id="tspan2986"
           sodipodi:role="line"
           x="49.848186"
           y="76.321236" /></text>
      <path
         inkscape:connector-curvature="0"
         id="rect2988"
         d="m 128,839.45599 c -34.891314,-0.004 -69.783173,6.54708 -74.46875,19.6875 l -3.6875,0 c -2.77,0 -5,2.23 -5,5 l 0,20 c 0,2.77 2.23,5 5,5 l 3.15625,0 0,78.9375 c 0,12.22059 9.841912,22.06253 22.0625,22.06253 l 1.9375,0 0,14.12488 c 0,2.77 2.23,5 5,5 l 10,0 c 2.77,0 5,-2.23 5,-5 l 0,-14.12488 62,0 0,14.12488 c 0,2.77 2.23,5 5,5 l 10,0 c 2.77,0 5,-2.23 5,-5 l 0,-14.12488 1.9375,0 c 12.22059,0 22.0625,-9.84194 22.0625,-22.06253 l 0,-78.9375 3.15625,0 c 2.77,0 5,-2.23 5,-5 l 0,-20 c 0,-2.77 -2.23,-5 -5,-5 l -3.6875,0 C 197.76515,846.02443 162.88002,839.46002 128,839.45599 z m -55,31.25 110,0 0,46.875 -110,0 0,-46.875 z m 11.78125,74.4375 c 4.977246,0 9,4.02276 9,9 0,4.97725 -4.022754,9.03125 -9,9.03125 -4.977247,0 -9.03125,-4.054 -9.03125,-9.03125 0,-4.97724 4.054003,-9 9.03125,-9 z m 86.4375,0 c 4.97725,0 9.03125,4.02276 9.03125,9 0,4.97725 -4.054,9.03125 -9.03125,9.03125 -4.97725,0 -9,-4.054 -9,-9.03125 0,-4.97724 4.02275,-9 9,-9 z"
         style="fill:#000000;fill-opacity:1;fill-rule:evenodd;stroke:none" />
      <g
         transform="translate(-3.2552261,0)"
         id="g3778" />
      <g
         transform="translate(-4.787678,0)"
         id="g3802" />
      <g
         transform="translate(-0.22964859,0)"
         id="g3846" />
    </g>
  </g>
</svg>
