<?xml version="1.0" encoding="UTF-8" standalone="no"?>
<!-- Created with Inkscape (http://www.inkscape.org/) -->

<svg
   xmlns:dc="http://purl.org/dc/elements/1.1/"
   xmlns:cc="http://creativecommons.org/ns#"
   xmlns:rdf="http://www.w3.org/1999/02/22-rdf-syntax-ns#"
   xmlns:svg="http://www.w3.org/2000/svg"
   xmlns="http://www.w3.org/2000/svg"
   xmlns:sodipodi="http://sodipodi.sourceforge.net/DTD/sodipodi-0.dtd"
   xmlns:inkscape="http://www.inkscape.org/namespaces/inkscape"
   width="64"
   height="64"
   id="svg2"
   inkscape:label="Pozadí"
   version="1.1"
   inkscape:version="0.91 r13725"
   sodipodi:docname="empty.svg">
  <defs
     id="defs3" />
  <sodipodi:namedview
     id="base"
     pagecolor="#ffffff"
     bordercolor="#666666"
     borderopacity="1.0"
     inkscape:pageopacity="0.0"
     inkscape:pageshadow="2"
     inkscape:zoom="11.2"
     inkscape:cx="12.27665"
     inkscape:cy="28.869984"
     inkscape:document-units="px"
     inkscape:current-layer="layer1-1"
     showgrid="false"
     inkscape:window-width="1855"
     inkscape:window-height="1056"
     inkscape:window-x="65"
     inkscape:window-y="24"
     inkscape:window-maximized="1" />
  <metadata
     id="metadata6">
    <rdf:RDF>
      <cc:Work
         rdf:about="">
        <dc:format>image/svg+xml</dc:format>
        <dc:type
           rdf:resource="http://purl.org/dc/dcmitype/StillImage" />
        <dc:title />
      </cc:Work>
    </rdf:RDF>
  </metadata>
  <g
     inkscape:label="Vrstva 1"
     inkscape:groupmode="layer"
     id="layer1"
     transform="translate(0,-988.36218)">
    <g
       transform="matrix(0.25,0,0,0.25,0,789.27163)"
       id="layer1-1"
       inkscape:label="Vrstva 1">
      <text
         transform="translate(0,796.36218)"
         sodipodi:linespacing="125%"
         id="text2984"
         y="76.321236"
         x="49.848186"
         style="font-size:40px;font-style:normal;font-weight:normal;line-height:125%;letter-spacing:0px;word-spacing:0px;fill:#000000;fill-opacity:1;stroke:none;font-family:Sans"
         xml:space="preserve"><tspan
           id="tspan2986"
           sodipodi:role="line"
           x="49.848186"
           y="76.321236" /></text>
      <path
         style="fill:#000000;fill-opacity:1;fill-rule:evenodd;stroke:none"
         d="M 32 10.773438 C 23.277172 10.772437 14.554207 12.410208 13.382812 15.695312 L 12.460938 15.695312 C 11.768437 15.695312 11.210938 16.252813 11.210938 16.945312 L 11.210938 21.945312 C 11.210938 22.637812 11.768437 23.195312 12.460938 23.195312 L 13.25 23.195312 L 13.25 42.929688 C 13.25 45.984835 15.710478 48.445312 18.765625 48.445312 L 19.25 48.445312 L 19.25 51.976562 C 19.25 52.669062 19.8075 53.226562 20.5 53.226562 L 23 53.226562 C 23.6925 53.226562 24.25 52.669062 24.25 51.976562 L 24.25 48.445312 L 39.75 48.445312 L 39.75 51.976562 C 39.75 52.669062 40.3075 53.226562 41 53.226562 L 43.5 53.226562 C 44.1925 53.226562 44.75 52.669062 44.75 51.976562 L 44.75 48.445312 L 45.234375 48.445312 C 48.289522 48.445312 50.75 45.984835 50.75 42.929688 L 50.75 23.195312 L 51.539062 23.195312 C 52.231563 23.195312 52.789063 22.637812 52.789062 21.945312 L 52.789062 16.945312 C 52.789062 16.252813 52.231563 15.695312 51.539062 15.695312 L 50.617188 15.695312 C 49.441288 12.415548 40.720005 10.774445 32 10.773438 z M 31.429688 12.457031 C 33.233116 12.457031 34.704742 12.710572 35.84375 13.216797 C 37.014397 13.691384 37.948471 14.307068 38.644531 15.066406 C 39.340591 15.825745 39.815246 16.679733 40.068359 17.628906 C 40.169031 17.953293 40.229842 18.26946 40.294922 18.585938 L 45.75 18.585938 L 45.75 30.304688 L 33.90625 30.304688 C 33.512607 30.83691 33.149111 31.395836 32.853516 32.009766 C 32.442207 32.832382 32.236328 33.766457 32.236328 34.810547 L 32.236328 35.332031 C 32.236328 35.521866 32.253518 35.695321 32.285156 35.853516 L 28.582031 35.853516 C 28.455475 35.220734 28.392578 34.557388 28.392578 33.861328 C 28.392578 32.848876 28.567986 31.930039 28.916016 31.107422 C 29.044541 30.82895 29.19933 30.568657 29.349609 30.304688 L 18.25 30.304688 L 18.25 18.585938 L 35.423828 18.585938 C 35.217386 18.165181 34.958506 17.775653 34.609375 17.439453 C 33.75512 16.585198 32.506561 16.158203 30.861328 16.158203 C 28.773146 16.158203 26.731544 16.695756 24.738281 17.771484 L 23.505859 14.355469 C 24.581588 13.785965 25.782485 13.326546 27.111328 12.978516 C 28.471808 12.630486 29.911011 12.457031 31.429688 12.457031 z M 35.423828 18.585938 C 35.72251 19.19469 35.892578 19.882219 35.892578 20.667969 C 35.892578 21.490585 35.701934 22.249252 35.322266 22.945312 C 34.974236 23.641373 34.514818 24.304717 33.945312 24.9375 C 33.375809 25.570282 32.77536 26.203156 32.142578 26.835938 C 31.509796 27.437081 30.909347 28.10238 30.339844 28.830078 C 29.963127 29.290508 29.643262 29.788882 29.349609 30.304688 L 33.90625 30.304688 C 34.060345 30.096345 34.203928 29.879416 34.373047 29.683594 C 34.974189 28.955895 35.637534 28.260125 36.365234 27.595703 C 37.092933 26.931283 37.758232 26.235513 38.359375 25.507812 C 38.960518 24.780114 39.467598 24.004257 39.878906 23.181641 C 40.290215 22.327384 40.494141 21.362838 40.494141 20.287109 C 40.494141 19.734868 40.413922 19.164622 40.294922 18.585938 L 35.423828 18.585938 z M 21.195312 37.195312 C 22.439624 37.195312 23.445312 38.201002 23.445312 39.445312 C 23.445312 40.689625 22.439624 41.703125 21.195312 41.703125 C 19.951001 41.703125 18.9375 40.689625 18.9375 39.445312 C 18.9375 38.201002 19.951001 37.195312 21.195312 37.195312 z M 42.804688 37.195312 C 44.049 37.195312 45.0625 38.201002 45.0625 39.445312 C 45.0625 40.689625 44.049 41.703125 42.804688 41.703125 C 41.560375 41.703125 40.554688 40.689625 40.554688 39.445312 C 40.554688 38.201002 41.560375 37.195312 42.804688 37.195312 z M 30.671875 40.363281 C 31.652687 40.363281 32.42659 40.679717 32.996094 41.3125 C 33.565599 41.945282 33.851562 42.688714 33.851562 43.542969 C 33.851562 44.397224 33.565599 45.140654 32.996094 45.773438 C 32.42659 46.406219 31.652687 46.722656 30.671875 46.722656 C 29.691063 46.722656 28.915208 46.406219 28.345703 45.773438 C 27.7762 45.140654 27.492188 44.397224 27.492188 43.542969 C 27.492188 42.688714 27.7762 41.945282 28.345703 41.3125 C 28.915208 40.679717 29.691063 40.363281 30.671875 40.363281 z "
         transform="matrix(4,0,0,4,0,796.3622)"
         id="rect2988" />
      <g
         transform="translate(-3.2552261,0)"
         id="g3778" />
      <g
         transform="translate(-4.787678,0)"
         id="g3802" />
      <g
         transform="translate(-0.22964859,0)"
         id="g3846" />
      <g
         style="font-style:normal;font-weight:normal;font-size:189.83457947px;line-height:125%;font-family:sans-serif;letter-spacing:0px;word-spacing:0px;fill:#000000;fill-opacity:1;stroke:none;stroke-width:1px;stroke-linecap:butt;stroke-linejoin:miter;stroke-opacity:1"
         id="text3340" />
    </g>
  </g>
</svg>
