<?xml version="1.0" encoding="UTF-8" standalone="no"?>
<!-- Created with Inkscape (http://www.inkscape.org/) -->

<svg
   xmlns:dc="http://purl.org/dc/elements/1.1/"
   xmlns:cc="http://creativecommons.org/ns#"
   xmlns:rdf="http://www.w3.org/1999/02/22-rdf-syntax-ns#"
   xmlns:svg="http://www.w3.org/2000/svg"
   xmlns="http://www.w3.org/2000/svg"
   xmlns:xlink="http://www.w3.org/1999/xlink"
   xmlns:sodipodi="http://sodipodi.sourceforge.net/DTD/sodipodi-0.dtd"
   xmlns:inkscape="http://www.inkscape.org/namespaces/inkscape"
   width="64"
   height="64"
   id="svg2"
   inkscape:label="Pozadí"
   version="1.1"
   inkscape:version="0.91 r13725"
   sodipodi:docname="map_position.svg">
  <defs
     id="defs3">
    <linearGradient
       inkscape:collect="always"
       id="linearGradient8075">
      <stop
         style="stop-color:#ffd900;stop-opacity:1"
         offset="0"
         id="stop8077" />
      <stop
         style="stop-color:#af0000;stop-opacity:0.5411765"
         offset="1"
         id="stop8079" />
    </linearGradient>
    <linearGradient
       inkscape:collect="always"
       xlink:href="#linearGradient8075"
       id="linearGradient8081"
       x1="31.928572"
       y1="-0.32142857"
       x2="31.928572"
       y2="66.464287"
       gradientUnits="userSpaceOnUse"
       gradientTransform="matrix(3.8918687,0,0,3.8918687,10.69203,802.77639)" />
  </defs>
  <sodipodi:namedview
     id="base"
     pagecolor="#ffffff"
     bordercolor="#666666"
     borderopacity="1.0"
     inkscape:pageopacity="0.0"
     inkscape:pageshadow="2"
     inkscape:zoom="5.6"
     inkscape:cx="22.212449"
     inkscape:cy="44.440893"
     inkscape:document-units="px"
     inkscape:current-layer="layer1-1"
     showgrid="false"
     inkscape:window-width="1855"
     inkscape:window-height="1056"
     inkscape:window-x="65"
     inkscape:window-y="24"
     inkscape:window-maximized="1"
     showguides="false"
     inkscape:guide-bbox="true" />
  <metadata
     id="metadata6">
    <rdf:RDF>
      <cc:Work
         rdf:about="">
        <dc:format>image/svg+xml</dc:format>
        <dc:type
           rdf:resource="http://purl.org/dc/dcmitype/StillImage" />
        <dc:title />
      </cc:Work>
    </rdf:RDF>
  </metadata>
  <g
     inkscape:label="Vrstva 1"
     inkscape:groupmode="layer"
     id="layer1"
     transform="translate(0,-988.36218)">
    <g
       transform="matrix(0.23457792,0,0,0.23457792,0.2775974,805.62)"
       id="layer1-1"
       inkscape:label="Vrstva 1"
       style="fill:#800000;fill-opacity:1">
      <circle
         style="opacity:1;fill:#ffffff;fill-opacity:1;stroke:none;stroke-width:3;stroke-linecap:round;stroke-linejoin:miter;stroke-miterlimit:4;stroke-dasharray:none;stroke-dashoffset:0;stroke-opacity:1"
         id="path8088"
         cx="135.23184"
         cy="889.86292"
         r="107.03114" />
      <g
         id="g8084"
         transform="matrix(1.0953549,0,0,1.0953549,-12.895016,-100.29956)">
        <path
           inkscape:connector-curvature="0"
           id="path4177"
           d="m 135.23182,802.77639 c -68.781423,0 -101.188575,50.26369 -101.188578,108.97231 -2e-6,58.70864 101.188578,140.1072 101.188578,140.1072 0,0 101.1886,-81.39856 101.1886,-140.1072 -1e-5,-58.70862 -32.40716,-108.97231 -101.1886,-108.97231 z m -50.594284,61.43374 a 24.671666,24.671666 0 0 1 24.673834,24.67385 24.671666,24.671666 0 0 1 -24.673834,24.67385 24.671666,24.671666 0 0 1 -24.673841,-24.67385 24.671666,24.671666 0 0 1 24.673841,-24.67385 z m 101.188584,0 a 24.671666,24.671666 0 0 1 24.67383,24.67385 24.671666,24.671666 0 0 1 -24.67383,24.67385 24.671666,24.671666 0 0 1 -24.67384,-24.67385 24.671666,24.671666 0 0 1 24.67384,-24.67385 z M 80.760869,944.05425 a 9.7306449,9.7306449 0 0 1 5.457739,1.81672 c 18.902212,13.12148 35.330232,17.17677 51.187182,16.22119 15.85696,-0.95557 31.51655,-7.26134 47.45496,-16.61645 a 9.7306449,9.7306449 0 1 1 9.85129,16.77608 c -17.41976,10.22461 -35.95626,18.05325 -56.13564,19.26931 -20.17939,1.21606 -41.638826,-4.51982 -63.455698,-19.66459 a 9.7306449,9.7306449 0 0 1 5.640167,-17.80226 z"
           style="opacity:1;fill:url(#linearGradient8081);fill-opacity:1;stroke:none;stroke-width:12.78892708;stroke-linecap:round;stroke-linejoin:miter;stroke-miterlimit:4;stroke-dasharray:none;stroke-dashoffset:0;stroke-opacity:1" />
      </g>
      <g
         style="font-style:normal;font-weight:normal;font-size:118.59213257px;line-height:125%;font-family:Sans;letter-spacing:0px;word-spacing:0px;fill:#800000;fill-opacity:1;stroke:none;stroke-width:1px;stroke-linecap:butt;stroke-linejoin:miter;stroke-opacity:1"
         id="text4146" />
      <g
         transform="matrix(4,0,0,4,0,-3173.0865)"
         id="layer1-2"
         inkscape:label="Vrstva 1"
         style="fill:#800000;fill-opacity:1">
        <g
           inkscape:label="Vrstva 1"
           id="layer1-1-3"
           transform="matrix(0.25,0,0,0.25,0,789.27163)"
           style="fill:#800000;fill-opacity:1">
          <g
             transform="translate(0,796.36218)"
             style="font-style:normal;font-weight:normal;font-size:40px;line-height:125%;font-family:Sans;letter-spacing:0px;word-spacing:0px;fill:#800000;fill-opacity:1;stroke:none"
             id="text2984" />
          <g
             id="g3778"
             transform="translate(-3.2552261,0)"
             style="fill:#800000;fill-opacity:1" />
          <g
             id="g3802"
             transform="translate(-4.787678,0)"
             style="fill:#800000;fill-opacity:1" />
          <g
             id="g3846"
             transform="translate(-0.22964859,0)"
             style="fill:#800000;fill-opacity:1" />
        </g>
      </g>
    </g>
  </g>
</svg>
