<?xml version="1.0" encoding="UTF-8" standalone="no"?>
<!-- Created with Inkscape (http://www.inkscape.org/) -->

<svg
   xmlns:dc="http://purl.org/dc/elements/1.1/"
   xmlns:cc="http://creativecommons.org/ns#"
   xmlns:rdf="http://www.w3.org/1999/02/22-rdf-syntax-ns#"
   xmlns:svg="http://www.w3.org/2000/svg"
   xmlns="http://www.w3.org/2000/svg"
   xmlns:sodipodi="http://sodipodi.sourceforge.net/DTD/sodipodi-0.dtd"
   xmlns:inkscape="http://www.inkscape.org/namespaces/inkscape"
   width="64"
   height="64"
   id="svg2"
   inkscape:label="Pozadí"
   version="1.1"
   inkscape:version="0.91 r13725"
   sodipodi:docname="taxi.svg">
  <defs
     id="defs3" />
  <sodipodi:namedview
     id="base"
     pagecolor="#ffffff"
     bordercolor="#666666"
     borderopacity="1.0"
     inkscape:pageopacity="0.0"
     inkscape:pageshadow="2"
     inkscape:zoom="11.2"
     inkscape:cx="30.703126"
     inkscape:cy="40.521766"
     inkscape:document-units="px"
     inkscape:current-layer="layer1"
     showgrid="false"
     inkscape:window-width="1855"
     inkscape:window-height="1056"
     inkscape:window-x="65"
     inkscape:window-y="24"
     inkscape:window-maximized="1" />
  <metadata
     id="metadata6">
    <rdf:RDF>
      <cc:Work
         rdf:about="">
        <dc:format>image/svg+xml</dc:format>
        <dc:type
           rdf:resource="http://purl.org/dc/dcmitype/StillImage" />
        <dc:title></dc:title>
      </cc:Work>
    </rdf:RDF>
  </metadata>
  <g
     inkscape:label="Vrstva 1"
     inkscape:groupmode="layer"
     id="layer1"
     transform="translate(0,-988.36218)">
    <g
       transform="matrix(0.25,0,0,0.25,0,789.27163)"
       id="layer1-1"
       inkscape:label="Vrstva 1">
      <path
         style="opacity:1;fill:#000000;fill-opacity:1;stroke:none;stroke-width:10;stroke-linecap:butt;stroke-linejoin:miter;stroke-miterlimit:4;stroke-dasharray:none;stroke-dashoffset:0;stroke-opacity:1"
         d="m 97.822319,853.22941 0,20.57032 c -19.344832,0.4765 -33.015524,2.60897 -36.210936,11.57031 l -3.6875,0 c -2.77,0 -5,2.23 -5,5 l 0,20 c 0,2.77 2.23,5 5,5 l 3.156248,0 -8,38.9375 c -2.459436,11.97055 9.841912,22.0625 22.0625,22.0625 l 1.9375,0 0,14.12495 c 0,2.77 2.23,5 5,5 l 10,0 c 2.77,0 5,-2.23 5,-5 l 0,-14.12495 61.999999,0 0,14.12495 c 0,2.77 2.23,5 5,5 l 10,0 c 2.77,0 5,-2.23 5,-5 l 0,-14.12495 1.9375,0 c 12.22059,0 22.0625,-9.84191 22.0625,-22.0625 l -8,-38.9375 3.15625,0 c 2.77,0 5,-2.23 5,-5 l 0,-20 c 0,-2.77 -2.23,-5 -5,-5 l -3.6875,0 c -3.21587,-8.96955 -16.94777,-11.08838 -36.36719,-11.5625 l 0,-20.57813 -60.359371,0 z m 5.945311,4.71094 13.4375,0 0,2.83594 -4.83594,0 0,11.74219 -3.75781,0 0,-11.74219 -4.84375,0 0,-2.83594 z m 17.46875,0 4.48438,0 5.39843,14.57813 -3.77343,0 -0.92188,-2.65625 -5.875,0 -0.92969,2.65625 -3.78125,0 5.39844,-14.57813 z m 10.54687,0 3.92969,0 3.19531,4.69532 3.17969,-4.69532 3.94531,0 -4.85937,7.13282 5.05469,7.44531 -3.91406,0 -3.40626,-4.98438 -3.38281,4.98438 -3.9375,0 5.0625,-7.44531 -4.86719,-7.13282 z m 16.69532,0 3.75781,0 0,14.57813 -3.75781,0 0,-14.57813 z m -24.99219,3.41406 -2,5.80469 3.99219,0 -1.99219,-5.80469 z m -50.406249,27.57813 109.999999,0 8,46.875 -125.999999,0 8,-46.875 z m 11.781252,58.4375 c 4.977244,0 9,4.02276 9,9 0,4.97725 -4.022756,9.03125 -9,9.03125 -4.977248,0 -9.031252,-4.054 -9.031252,-9.03125 0,-4.97724 4.054004,-9 9.031252,-9 z m 86.437497,0 c 4.97725,0 9.03125,4.02276 9.03125,9 0,4.97725 -4.054,9.03125 -9.03125,9.03125 -4.97725,0 -9,-4.054 -9,-9.03125 0,-4.97724 4.02275,-9 9,-9 z"
         id="rect4172"
         inkscape:connector-curvature="0" />
      <text
         transform="translate(0,796.36218)"
         sodipodi:linespacing="125%"
         id="text2984"
         y="76.321236"
         x="49.848186"
         style="font-size:40px;font-style:normal;font-weight:normal;line-height:125%;letter-spacing:0px;word-spacing:0px;fill:#000000;fill-opacity:1;stroke:none;font-family:Sans"
         xml:space="preserve"><tspan
           id="tspan2986"
           sodipodi:role="line"
           x="49.848186"
           y="76.321236" /></text>
      <g
         transform="translate(-3.2552261,0)"
         id="g3778" />
      <g
         transform="translate(-4.787678,0)"
         id="g3802" />
      <g
         transform="translate(-0.22964859,0)"
         id="g3846" />
      <g
         style="font-style:normal;font-weight:normal;font-size:160px;line-height:125%;font-family:Sans;letter-spacing:0px;word-spacing:0px;fill:#ffffff;fill-opacity:1;stroke:none;stroke-width:1px;stroke-linecap:butt;stroke-linejoin:miter;stroke-opacity:1"
         id="text4159"
         transform="translate(0.8118,0.35714289)" />
    </g>
  </g>
</svg>
