<?xml version="1.0" encoding="UTF-8" standalone="no"?>
<!-- Created with Inkscape (http://www.inkscape.org/) -->

<svg
   xmlns:dc="http://purl.org/dc/elements/1.1/"
   xmlns:cc="http://creativecommons.org/ns#"
   xmlns:rdf="http://www.w3.org/1999/02/22-rdf-syntax-ns#"
   xmlns:svg="http://www.w3.org/2000/svg"
   xmlns="http://www.w3.org/2000/svg"
   xmlns:sodipodi="http://sodipodi.sourceforge.net/DTD/sodipodi-0.dtd"
   xmlns:inkscape="http://www.inkscape.org/namespaces/inkscape"
   width="64"
   height="64"
   id="svg2"
   inkscape:label="Pozadí"
   version="1.1"
   inkscape:version="0.91 r13725"
   sodipodi:docname="trol.svg">
  <defs
     id="defs3" />
  <sodipodi:namedview
     id="base"
     pagecolor="#ffffff"
     bordercolor="#666666"
     borderopacity="1.0"
     inkscape:pageopacity="0.0"
     inkscape:pageshadow="2"
     inkscape:zoom="5.6"
     inkscape:cx="28.194592"
     inkscape:cy="37.298036"
     inkscape:document-units="px"
     inkscape:current-layer="layer1-1"
     showgrid="false"
     inkscape:window-width="1855"
     inkscape:window-height="1056"
     inkscape:window-x="65"
     inkscape:window-y="24"
     inkscape:window-maximized="1"
     showguides="true"
     inkscape:guide-bbox="true" />
  <metadata
     id="metadata6">
    <rdf:RDF>
      <cc:Work
         rdf:about="">
        <dc:format>image/svg+xml</dc:format>
        <dc:type
           rdf:resource="http://purl.org/dc/dcmitype/StillImage" />
        <dc:title />
      </cc:Work>
    </rdf:RDF>
  </metadata>
  <g
     inkscape:label="Vrstva 1"
     inkscape:groupmode="layer"
     id="layer1"
     transform="translate(0,-988.36218)">
    <g
       transform="matrix(0.25,0,0,0.25,0,789.27163)"
       id="layer1-1"
       inkscape:label="Vrstva 1">
      <text
         transform="translate(0,796.36218)"
         sodipodi:linespacing="125%"
         id="text2984"
         y="76.321236"
         x="49.848186"
         style="font-size:40px;font-style:normal;font-weight:normal;line-height:125%;letter-spacing:0px;word-spacing:0px;fill:#000000;fill-opacity:1;stroke:none;font-family:Sans"
         xml:space="preserve"><tspan
           id="tspan2986"
           sodipodi:role="line"
           x="49.848186"
           y="76.321236" /></text>
      <path
         style="fill:#000000;fill-opacity:1;fill-rule:evenodd;stroke:none"
         d="M 9.9648438 0.76953125 L 8.3046875 1.9726562 L 9.1757812 2.5449219 L 22.705078 11.449219 C 17.861147 12.213337 14.12077 13.625756 13.382812 15.695312 L 12.460938 15.695312 C 11.768437 15.695312 11.210938 16.252813 11.210938 16.945312 L 11.210938 21.945312 C 11.210938 22.637812 11.768437 23.195312 12.460938 23.195312 L 13.25 23.195312 L 13.25 42.929688 C 13.25 45.984835 15.710478 48.445312 18.765625 48.445312 L 19.25 48.445312 L 19.25 51.976562 C 19.25 52.669062 19.8075 53.226562 20.5 53.226562 L 23 53.226562 C 23.6925 53.226562 24.25 52.669062 24.25 51.976562 L 24.25 48.445312 L 39.75 48.445312 L 39.75 51.976562 C 39.75 52.669062 40.3075 53.226562 41 53.226562 L 43.5 53.226562 C 44.1925 53.226562 44.75 52.669062 44.75 51.976562 L 44.75 48.445312 L 45.234375 48.445312 C 48.289522 48.445312 50.75 45.984835 50.75 42.929688 L 50.75 23.195312 L 51.539062 23.195312 C 52.231563 23.195312 52.789063 22.637812 52.789062 21.945312 L 52.789062 16.945312 C 52.789062 16.252813 52.231563 15.695312 51.539062 15.695312 L 50.617188 15.695312 C 49.589093 12.827801 42.793408 11.214858 35.273438 10.853516 L 20.824219 1.3417969 L 19.953125 0.76953125 L 18.292969 1.9726562 L 19.164062 2.5449219 L 31.677734 10.78125 C 29.622039 10.790573 27.571446 10.884644 25.625 11.076172 L 10.835938 1.3417969 L 9.9648438 0.76953125 z M 18.25 18.585938 L 45.75 18.585938 L 45.75 30.304688 L 18.25 30.304688 L 18.25 18.585938 z M 21.195312 37.195312 C 22.439624 37.195312 23.445312 38.201002 23.445312 39.445312 C 23.445312 40.689625 22.439624 41.703125 21.195312 41.703125 C 19.951001 41.703125 18.9375 40.689625 18.9375 39.445312 C 18.9375 38.201002 19.951001 37.195312 21.195312 37.195312 z M 42.804688 37.195312 C 44.049 37.195312 45.0625 38.201002 45.0625 39.445312 C 45.0625 40.689625 44.049 41.703125 42.804688 41.703125 C 41.560375 41.703125 40.554688 40.689625 40.554688 39.445312 C 40.554688 38.201002 41.560375 37.195312 42.804688 37.195312 z "
         transform="matrix(4,0,0,4,0,796.3622)"
         id="rect2988" />
      <g
         transform="translate(-3.2552261,0)"
         id="g3778" />
      <g
         transform="translate(-4.787678,0)"
         id="g3802" />
      <g
         transform="translate(-0.22964859,0)"
         id="g3846" />
      <g
         id="g3909"
         transform="matrix(1.063149,0,0,0.73438933,-9.0619345,216.19863)"
         style="stroke-width:9.05377579;stroke-miterlimit:4;stroke-dasharray:none">
        <g
           id="g3913"
           transform="translate(-7.5248154,0)" />
      </g>
    </g>
  </g>
</svg>
